# AST/ASF file generated using VICON BodyLanguage
# -----------------------------------------------
:version 1.10
:name VICON
:units
  mass 1.0
  length 0.45
  angle deg
:documentation
   .ast/.asf automatically generated from VICON data using
   VICON BodyBuilder and BodyLanguage model FoxedUp or BRILLIANT.MOD
:root
   order TX TY TZ RX RY RZ
   axis XYZ
   position 0 0 0  
   orientation 0 0 0 
:bonedata
  begin
     id 1 
     name lhipjoint
     direction 0.671379 -0.66392 0.329334 
     length 2.38647 
     axis 0 0 0  XYZ
  end
  begin
     id 2 
     name lfemur
     direction 0.34202 -0.939693 0  
     length 6.48179  
     axis 0 0 20  XYZ
    dof rx ry rz
    limits (-160.0 20.0)
           (-70.0 70.0)
           (-60.0 70.0)
  end
  begin
     id 3 
     name ltibia
     direction 0.34202 -0.939693 0   
     length 6.86524   
     axis 0 0 20   XYZ
    dof rx
    limits (-10.0 170.0)
  end
  begin
     id 4 
     name lfoot
     direction 0.204886 -0.562919 0.800715   
     length 1.73031   
     axis -90 7.62852e-016 20   XYZ
    dof rx rz
    limits (-45.0 90.0)
           (-70.0 20.0)
  end
  begin
     id 5 
     name ltoes
     direction 1.53548e-011 -4.21841e-011 1   
     length 0.828161   
     axis -90 7.62852e-016 20   XYZ
    dof rx
    limits (-90.0 20.0)
  end
  begin
     id 6 
     name rhipjoint
     direction -0.662732 -0.670855 0.332775   
     length 2.3618  
     axis 0 0 0  XYZ 
  end
  begin
     id 7 
     name rfemur
     direction -0.34202 -0.939693 0   
     length 6.3025   
     axis 0 0 -20   XYZ
    dof rx ry rz
    limits (-160.0 20.0)
           (-70.0 70.0)
           (-70.0 60.0)
  end
  begin
     id 8 
     name rtibia
     direction -0.34202 -0.939693 0   
     length 6.8732   
     axis 0 0 -20   XYZ
    dof rx
    limits (-10.0 170.0)
 end
 begin
     id 9 
     name rfoot
     direction -0.173856 -0.477665 0.861168   
     length 1.54784  
     axis -90 -7.62852e-016 -20   XYZ
    dof rx rz
    limits (-45.0 90.0)
           (-20.0 70.0)
  end
  begin
     id 10 
     name rtoes
     direction -1.53562e-011 -4.21802e-011 1   
     length 0.759618   
     axis -90 -7.62852e-016 -20   XYZ
    dof rx
    limits (-90.0 20.0)
  end
  begin
     id 11 
     name lowerback
     direction -0.0278357 0.999497 -0.0151789   
     length 1.97203   
     axis 0 0 0   XYZ
    dof rx ry rz
    limits (-20.0 45.0)
           (-30.0 30.0)
           (-30.0 30.0)
  end
  begin
     id 12 
     name upperback
     direction -0.00360622 0.997542 0.0699804   
     length 1.94709   
     axis 0 0 0   XYZ
    dof rx ry rz
    limits (-20.0 45.0)
           (-30.0 30.0)
           (-30.0 30.0)
  end
  begin
     id 13 
     name thorax
     direction 0.00907706 0.997048 0.0762461   
     length 1.95722   
     axis 0 0 0   XYZ
    dof rx ry rz
    limits (-20.0 45.0)
           (-30.0 30.0)
           (-30.0 30.0)
  end
  begin
     id 14 
     name lowerneck
     direction -0.0481835 0.99872 -0.0153927   
     length 1.63078   
     axis 0 0 0   XYZ
    dof rx ry rz
    limits (-20.0 45.0)
           (-30.0 30.0)
           (-30.0 30.0)
  end
  begin
     id 15 
     name upperneck
     direction 0.0859716 0.979226 -0.183644   
     length 1.62591   
     axis 0 0 0   XYZ
    dof rx ry rz
    limits (-20.0 45.0)
           (-30.0 30.0)
           (-30.0 30.0)
  end
  begin
     id 16
     name head
     direction 0.0324821 0.997629 -0.0606773  
     length 1.64811  
     axis 0 0 0   XYZ
    dof rx ry rz
    limits (-20.0 45.0)
           (-30.0 30.0)
           (-30.0 30.0)
  end
  begin
     id 17 
     name lclavicle
     direction 0.939609 0.311019 0.142835  
     length 3.70647  
     axis 0 0 0   XYZ
    dof ry rz
    limits (-20.0 10.0)
           (0.0 20.0)
  end
  begin
     id 18 
     name lhumerus
     direction 1 -4.48963e-011 -1.59838e-027   
     length 4.59207   
     axis 180 -30 -90   XYZ
    dof rx ry rz
    limits (-60.0 90.0)
           (-90.0 90.0)
           (-90.0 90.0)
  end
  begin
     id 19
     name lradius
     direction 1 -4.48957e-011 -1.3483e-026   
     length 2.98109   
     axis 180 -30 -90   XYZ
    dof rx
    limits (-10.0 170.0)
  end
  begin
     id 20
     name lwrist
     direction 1 -4.48954e-011 -3.11579e-026   
     length 1.49055   
     axis 2.00652e-014 90 90   XYZ
    dof ry
    limits (-180.0 0.0)
 end
  begin
     id 21 
     name lhand
     direction 1 -4.4911e-011 -6.23158e-026   
     length 0.480203   
     axis 3.97628e-014 90 90   XYZ
    dof rx rz
    limits (-90.0 90.0)
           (-45.0 45.0)
  end
  begin
     id 22 
     name lfingers
     direction 1 -4.48893e-011 -1.24632e-025   
     length 0.387152   
     axis 7.95256e-014 90 90   XYZ
    dof rx
    limits (0.0 90.0)
  end
  begin
     id 23
     name lthumb
     direction 0.707107 -6.35013e-011 0.707107   
     length 0.555875   
     axis -90 45 2.85299e-015   XYZ
    dof rx rz
    limits (-45.0 45.0)
           (-45.0 45.0)
  end
  begin
     id 24 
     name rclavicle
     direction -0.950396 0.30392 0.0661859   
     length 3.70894  
     axis 0 0 0   XYZ 
    dof ry rz
    limits (-10.0 20.0)
           (-20.0 0.0)
  end
  begin
     id 25 
     name rhumerus
     direction -1 -4.48957e-011 -2.96677e-027  
     length 4.76508   
     axis 180 30 90   XYZ
    dof rx ry rz
    limits (-90.0 60.0)
           (-90.0 90.0)
           (-90.0 90.0)
  end
  begin
     id 26 
     name rradius
     direction -1 -4.48974e-011 -1.44501e-026   
     length 2.78902   
     axis 180 30 90   XYZ
    dof rx
    limits (-10.0 170.0)
  end
  begin
     id 27 
     name rwrist
     direction -1 -4.48978e-011 -3.11579e-026   
     length 1.39451   
     axis 2.00652e-014 -90 -90   XYZ
    dof ry
    limits (-180.0 0.0)
  end
  begin
     id 28
     name rhand
     direction -1 -4.48956e-011 -6.23158e-026   
     length 0.721303   
     axis 3.97628e-014 -90 -90   XYZ
    dof rx rz
    limits (-90.0 90.0)
           (-45.0 45.0)
  end
  begin
     id 29
     name rfingers
     direction -1 -4.4899e-011 -1.24632e-025   
     length 0.581533   
     axis 7.95256e-014 -90 -90   XYZ
    dof rx
    limits (0.0 90.0)
  end
  begin
     id 30
     name rthumb
     direction -0.707107 -6.34911e-011 0.707107   
     length 0.834968   
     axis -90 -45 -2.85299e-015   XYZ
    dof rx rz
    limits (-45.0 45.0)
           (-45.0 45.0)
  end
:hierarchy
  begin
    root lhipjoint rhipjoint lowerback
    lhipjoint lfemur
    lfemur ltibia
    ltibia lfoot
    lfoot ltoes
    rhipjoint rfemur
    rfemur rtibia
    rtibia rfoot
    rfoot rtoes
    lowerback upperback
    upperback thorax
    thorax lowerneck lclavicle rclavicle
    lowerneck upperneck
    upperneck head
    lclavicle lhumerus
    lhumerus lradius
    lradius lwrist
    lwrist lhand lthumb
    lhand lfingers
    rclavicle rhumerus
    rhumerus rradius
    rradius rwrist
    rwrist rhand rthumb
    rhand rfingers
  end

#!OML:ASF I:\salsa\salsa 7_09\Patient 1\Session 1\dancerfemale.ASF
:FULLY-SPECIFIED
:DEGREES
105
root 26.103 15.8543 0.147731 -87.1342 -87.3955 91.6827
lowerback 0.361399 1.83188 -8.56084
upperback -3.93046 2.08742 -1.21621
thorax -4.5786 1.29291 3.42819
lowerneck -0.74941 -3.95597 -9.88777
upperneck 4.97397 -6.23607 17.4648
head 2.43559 -3.02535 6.81201
rclavicle -1.17034e-014 4.77083e-015
rhumerus -49.7427 -46.2051 -59.6392
rradius 27.5066
rwrist 9.78784
rhand 6.38918 41.5093
rfingers 7.12502
rthumb 31.6941 14.2425
lclavicle -1.17034e-014 4.77083e-015
lhumerus -44.7434 27.0467 74.35
lradius 43.0685
lwrist -9.59839
lhand -22.7521 46.0557
lfingers 7.12502
lthumb 3.68246 76.0036
rfemur -22.1367 -0.233865 12.0122
rtibia 39.5817
rfoot -22.5617 -15.3481
rtoes -17.7415
lfemur -14.3845 4.81231 -27.8436
ltibia 31.4441
lfoot -24.9082 1.10558
ltoes -14.1848
106
root 26.115 15.8584 0.151934 -93.3875 -87.5293 97.8639
lowerback 0.431921 1.76579 -8.47146
upperback -3.86733 2.00316 -1.16067
thorax -4.53887 1.2471 3.44043
lowerneck -1.05892 -3.91358 -9.99139
upperneck 5.11669 -6.17928 17.5412
head 2.52737 -2.97992 6.8507
rclavicle 1.61264e-014 -7.55382e-015
rhumerus -50.103 -46.4327 -59.1746
rradius 27.4182
rwrist 10.1467
rhand 6.61623 41.7486
rfingers 7.12502
rthumb 31.9103 14.5247
lclavicle 1.61264e-014 -7.55382e-015
lhumerus -44.5525 27.0842 74.2757
lradius 42.9871
lwrist -9.60459
lhand -22.7075 45.9223
lfingers 7.12502
lthumb 3.72555 75.8694
rfemur -22.4914 -0.529501 12.5828
rtibia 40.1121
rfoot -22.484 -14.5027
rtoes -17.6825
lfemur -14.3244 4.66923 -27.7093
ltibia 31.4176
lfoot -24.9401 1.52694
ltoes -14.0766
107
root 26.1249 15.8571 0.153834 -97.8361 -87.6068 102.237
lowerback 0.546802 1.67016 -8.38551
upperback -3.8401 1.87141 -1.11772
thorax -4.55639 1.18024 3.44191
lowerneck -1.28586 -3.86888 -10.129
upperneck 5.24708 -6.1155 17.5598
head 2.59956 -2.9362 6.87916
rclavicle 4.09993e-015 3.37934e-014
rhumerus -50.2635 -46.2744 -59.0866
rradius 27.4615
rwrist 10.2004
rhand 6.82358 41.9724
rfingers 7.12502
rthumb 32.1077 14.7881
lclavicle 4.09993e-015 3.37934e-014
lhumerus -44.4774 27.2864 74.128
lradius 42.8721
lwrist -9.79246
lhand -22.9638 46.0776
lfingers 7.12502
lthumb 3.47805 76.029
rfemur -22.6672 -0.830527 13.1136
rtibia 40.4876
rfoot -22.4684 -13.9891
rtoes -19.0067
lfemur -14.2873 4.58656 -27.6144
ltibia 31.4532
lfoot -24.9929 1.77406
ltoes -13.8515
108
root 26.1319 15.8556 0.153403 -100.444 -87.6793 104.758
lowerback 0.685083 1.58202 -8.26692
upperback -3.83537 1.74501 -1.1094
thorax -4.60934 1.11559 3.38795
lowerneck -1.46471 -3.84722 -10.2329
upperneck 5.35371 -6.08551 17.5853
head 2.66067 -2.91171 6.9035
rclavicle 2.3879e-014 -3.97569e-015
rhumerus -50.3409 -45.8793 -59.2992
rradius 27.6577
rwrist 9.87737
rhand 6.79893 41.756
rfingers 7.12502
rthumb 32.0843 14.567
lclavicle 2.3879e-014 -3.97569e-015
lhumerus -44.4278 27.4009 74.0231
lradius 42.7446
lwrist -9.90449
lhand -23.9033 46.2602
lfingers 7.12502
lthumb 2.57077 76.2245
rfemur -22.7159 -1.1089 13.635
rtibia 40.7101
rfoot -22.4753 -13.6634
rtoes -21.3077
lfemur -14.259 4.52413 -27.5159
ltibia 31.557
lfoot -25.0726 1.92045
ltoes -13.7926
109
root 26.1371 15.8545 0.1497 -101.229 -87.7347 105.476
lowerback 0.765856 1.52163 -8.20541
upperback -3.81595 1.65993 -1.11458
thorax -4.62151 1.07124 3.35141
lowerneck -1.57582 -3.86999 -10.2392
upperneck 5.37674 -6.10789 17.5449
head 2.6888 -2.91762 6.8881
rclavicle -1.89839e-014 3.97569e-016
rhumerus -50.6702 -45.8646 -59.0613
rradius 27.695
rwrist 9.77148
rhand 6.81938 41.6293
rfingers 7.12502
rthumb 32.1038 14.4442
lclavicle -1.89839e-014 3.97569e-016
lhumerus -44.2709 27.3533 74.045
lradius 42.5361
lwrist -9.97318
lhand -24.5664 46.4697
lfingers 7.12502
lthumb 1.93031 76.4407
rfemur -22.6725 -1.28422 14.1128
rtibia 40.7985
rfoot -22.7056 -12.6561
rtoes -22.2131
lfemur -14.2641 4.45859 -27.4361
ltibia 31.686
lfoot -25.1621 2.05732
ltoes -13.9864
